<?xml version="1.0" encoding="UTF-8"?>
<svg version="1.1" viewBox="0 0 738.87 164.56" xmlns="http://www.w3.org/2000/svg">

<path class="cls-1" d="M285.51 54.68v55.18h-7.84v-24.6h-31.52v24.6h-7.84V54.68h7.84v23.73h31.52V54.68h7.84zM336.95 96.07h-29.16l-6.04 13.79h-8.06l24.85-55.18h7.76l24.91 55.18h-8.23l-6.04-13.79h.02zm-2.74-6.31-11.84-27.03-11.84 27.03h23.68zM396.06 109.86l-11.84-16.95c-1.09.08-2.27.17-3.45.17h-13.55v16.78h-7.84V54.68h21.39c14.27 0 22.89 7.26 22.89 19.23 0 8.51-4.39 14.67-12.07 17.43l13.01 18.52h-8.56zm-.23-35.95c0-7.88-5.26-12.38-15.28-12.38h-13.32v24.83h13.32c10.02 0 15.28-4.56 15.28-12.45zM467.24 109.86l-.08-40.2-19.82 33.5h-3.61l-19.82-33.27v39.97h-7.53V54.68h6.44l22.89 38.79 22.57-38.79h6.43l.08 55.18h-7.55zM486.77 82.27c0-16.16 12.38-28.21 29.23-28.21s29.08 11.99 29.08 28.21-12.38 28.21-29.08 28.21-29.23-12.05-29.23-28.21zm50.47 0c0-12.22-9.1-21.2-21.24-21.2s-21.39 8.98-21.39 21.2 9.1 21.2 21.39 21.2 21.24-8.98 21.24-21.2zM604.27 54.68v55.18h-6.43L564.92 68.7v41.16h-7.84V54.68h6.43l32.92 41.16V54.68h7.84zM641.75 90.78v19.08h-7.76V90.63l-21.78-35.95h8.39l17.55 29.08 17.63-29.08h7.76l-21.8 36.09zM137.33 75.36c8.97-.04 17.1 5.27 21.99 13.13a37.49 37.49 0 0 1 4.58 10.99c1.03 4.4.58 9 1.59 13.4 1.98 8.51 8.95 14.85 17.84 14.85 10.11 0 18.29-8.24 18.29-18.4s-7.96-17.28-17.53-18.38c-8.13-.93-12.77-2.97-17.26-6.62-8.35-6.76-11.24-15.7-11.24-27.76 0-10.29-7.8-19.94-18.46-19.81-10.66.12-18.05 9.52-18.05 19.79 0 12.05-2.89 20.99-11.24 27.76-4.5 3.65-9.14 5.7-17.26 6.62-9.57 1.12-17.53 8.38-17.53 18.4s8.19 18.4 18.29 18.4c8.89 0 15.86-6.35 17.84-14.85 1.01-4.4.56-9 1.59-13.4 2.93-12.45 13.1-24.08 26.57-24.15v.02z" fill="#0f1854"/>
</svg>