<svg width="1236" height="1080" viewBox="0 0 1236 1080" fill="none" xmlns="http://www.w3.org/2000/svg">
<g opacity="0.8">
<path d="M1707.32 698.776C1668.16 698.776 1635.58 671.763 1626.18 631.701C1623.9 621.936 1623.26 611.807 1622.62 602.042C1621.98 592.369 1621.34 582.33 1619.15 572.748C1615.14 555.774 1608.38 539.713 1599.25 525.02C1576.98 489.43 1541.57 468.258 1504.33 468.258H1503.88C1444.28 468.532 1400.74 521.005 1388.51 572.748C1386.23 582.33 1385.59 592.369 1385.04 602.042C1384.4 611.807 1383.76 621.845 1381.48 631.701C1372.08 671.854 1339.5 698.776 1300.34 698.776C1254.43 698.776 1217.1 661.451 1217.1 615.548C1217.1 572.657 1250.6 537.705 1296.69 532.412C1330 528.58 1351.09 520.549 1371.9 503.757C1406.12 476.106 1420.73 440.15 1420.73 383.388C1420.73 333.835 1456.78 294.594 1502.87 294.046C1523.77 293.59 1543.94 302.077 1559.46 317.317C1576.89 334.565 1586.84 358.657 1586.84 383.479C1586.84 440.242 1601.45 476.197 1635.67 503.849C1656.57 520.64 1677.66 528.762 1710.88 532.503C1756.97 537.796 1790.47 572.748 1790.47 615.64C1790.47 661.543 1753.14 698.867 1707.23 698.867L1707.32 698.776ZM1504.24 463.695C1543.03 463.695 1579.9 485.688 1603 522.556C1612.49 537.614 1619.33 554.132 1623.53 571.653C1625.91 581.6 1626.54 591.821 1627.18 601.677C1627.82 611.259 1628.46 621.115 1630.56 630.606C1639.51 668.661 1670.26 694.213 1707.32 694.213C1750.67 694.213 1786 658.896 1786 615.548C1786 575.03 1754.23 541.995 1710.42 536.975C1676.2 533.051 1654.47 524.747 1632.84 507.316C1597.89 479.118 1582.28 440.88 1582.28 383.388C1582.28 359.752 1572.79 336.846 1556.17 320.511C1541.57 306.092 1522.77 298.153 1502.87 298.609C1464.72 299.065 1425.2 330.914 1425.2 383.388C1425.2 440.88 1409.59 479.118 1374.64 507.316C1353 524.747 1331.28 533.051 1297.06 536.975C1253.24 541.995 1221.48 575.03 1221.48 615.548C1221.48 658.896 1256.8 694.213 1300.16 694.213C1337.12 694.213 1367.97 668.661 1376.92 630.606C1379.11 621.206 1379.75 611.259 1380.29 601.677C1380.93 591.821 1381.57 581.509 1383.95 571.653C1396.54 518.267 1441.72 463.969 1503.69 463.695H1504.24Z" fill="url(#paint0_linear_114_231)"/>
<path d="M1707.32 195.761C1668.16 195.761 1635.58 168.84 1626.18 128.687C1623.9 118.922 1623.26 108.792 1622.62 99.0277C1621.98 89.3544 1621.34 79.2248 1619.15 69.7339C1615.14 52.7599 1608.38 36.6986 1599.25 22.006C1576.98 -13.5846 1541.57 -34.7565 1504.33 -34.7565H1503.88C1444.28 -34.4827 1400.74 17.9906 1388.51 69.6426C1386.23 79.2247 1385.59 89.2632 1385.04 98.9365C1384.4 108.701 1383.76 118.74 1381.48 128.595C1372.08 168.749 1339.5 195.67 1300.34 195.67C1254.43 195.67 1217.1 158.345 1217.1 112.443C1217.1 69.5514 1250.6 34.5995 1296.69 29.3066C1330 25.4737 1351.09 17.443 1371.9 0.65155C1406.12 -26.9996 1420.73 -62.9553 1420.73 -119.718C1420.73 -169.271 1456.78 -208.512 1502.87 -209.059C1523.96 -209.516 1543.94 -201.029 1559.37 -185.789C1576.8 -168.541 1586.75 -144.449 1586.75 -119.626C1586.75 -62.864 1601.35 -26.9083 1635.58 0.742889C1656.48 17.5344 1677.57 25.5651 1710.79 29.3979C1756.88 34.6909 1790.38 69.6427 1790.38 112.534C1790.38 158.437 1753.05 195.761 1707.14 195.761H1707.32ZM1504.33 -39.3194C1543.12 -39.3194 1580 -17.3262 1603.09 19.542C1612.58 34.5996 1619.43 51.1174 1623.62 68.6389C1626 78.586 1626.64 88.8069 1627.27 98.6628C1627.91 108.245 1628.55 118.101 1630.65 127.592C1639.6 165.646 1670.35 191.198 1707.41 191.198C1750.76 191.198 1786.09 155.882 1786.09 112.534C1786.09 72.0154 1754.32 38.98 1710.51 33.9608C1676.29 30.0367 1654.56 21.7322 1632.93 4.30196C1597.98 -23.8968 1582.37 -62.1339 1582.37 -119.626C1582.37 -143.262 1572.88 -166.168 1556.27 -182.503C1541.66 -196.922 1522.86 -204.77 1502.96 -204.405C1464.81 -203.949 1425.29 -172.1 1425.29 -119.626C1425.29 -62.1339 1409.68 -23.8968 1374.73 4.30196C1353.1 21.7322 1331.37 30.0367 1297.15 33.9608C1253.34 38.98 1221.57 72.0154 1221.57 112.534C1221.57 155.882 1256.9 191.198 1300.25 191.198C1337.21 191.198 1368.06 165.646 1377.01 127.592C1379.2 118.192 1379.84 108.245 1380.39 98.6628C1381.02 88.8069 1381.66 78.4948 1384.04 68.6389C1396.63 15.2529 1441.81 -39.0456 1503.78 -39.3194H1504.33Z" fill="url(#paint1_linear_114_231)"/>
<path d="M1707.32 1201.7C1668.16 1201.7 1635.58 1174.69 1626.18 1134.62C1623.9 1124.86 1623.26 1114.73 1622.62 1104.97C1621.98 1095.29 1621.34 1085.25 1619.15 1075.67C1615.14 1058.7 1608.38 1042.64 1599.25 1027.94C1576.98 992.353 1541.57 971.181 1504.33 971.181H1503.88C1444.28 971.455 1400.74 1023.93 1388.51 1075.58C1386.23 1085.16 1385.59 1095.2 1385.04 1104.87C1384.4 1114.64 1383.76 1124.68 1381.48 1134.53C1372.08 1174.69 1339.5 1201.61 1300.34 1201.61C1254.43 1201.61 1217.1 1164.28 1217.1 1118.38C1217.1 1075.49 1250.6 1040.54 1296.69 1035.24C1330 1031.41 1351.09 1023.38 1371.9 1006.59C1406.12 978.938 1420.73 942.982 1420.73 886.22C1420.73 836.667 1456.78 797.426 1502.87 796.878C1523.77 796.513 1543.94 804.909 1559.46 820.149C1576.89 837.397 1586.84 861.489 1586.84 886.311C1586.84 943.074 1601.45 979.029 1635.67 1006.68C1656.57 1023.47 1677.66 1031.59 1710.88 1035.34C1756.97 1040.63 1790.47 1075.58 1790.47 1118.47C1790.47 1164.37 1753.14 1201.7 1707.23 1201.7H1707.32ZM1504.24 966.618C1543.03 966.618 1579.9 988.611 1603 1025.48C1612.49 1040.54 1619.33 1057.05 1623.53 1074.58C1625.91 1084.52 1626.54 1094.74 1627.18 1104.6C1627.82 1114.18 1628.46 1124.04 1630.56 1133.53C1639.51 1171.58 1670.26 1197.14 1707.32 1197.14C1750.67 1197.14 1786 1161.82 1786 1118.47C1786 1077.95 1754.23 1044.92 1710.42 1039.9C1676.2 1035.97 1654.47 1027.67 1632.84 1010.24C1597.89 982.041 1582.28 943.804 1582.28 886.311C1582.28 862.675 1572.79 839.769 1556.17 823.434C1541.57 809.015 1522.77 800.985 1502.87 801.532C1464.72 801.989 1425.2 833.838 1425.2 886.311C1425.2 943.804 1409.59 982.041 1374.64 1010.24C1353 1027.67 1331.28 1035.97 1297.06 1039.9C1253.24 1044.92 1221.48 1077.95 1221.48 1118.47C1221.48 1161.82 1256.8 1197.14 1300.16 1197.14C1337.12 1197.14 1367.97 1171.58 1376.92 1133.53C1379.11 1124.13 1379.75 1114.18 1380.29 1104.6C1380.93 1094.74 1381.57 1084.43 1383.95 1074.58C1396.54 1021.19 1441.72 966.892 1503.69 966.618H1504.24Z" fill="url(#paint2_linear_114_231)"/>
<path d="M1707.32 698.776C1668.16 698.776 1635.58 671.763 1626.18 631.701C1623.9 621.936 1623.26 611.807 1622.62 602.042C1621.98 592.369 1621.34 582.33 1619.15 572.748C1615.14 555.774 1608.38 539.713 1599.25 525.02C1576.98 489.43 1541.57 468.258 1504.33 468.258H1503.88C1444.28 468.532 1400.74 521.005 1388.51 572.748C1386.23 582.33 1385.59 592.369 1385.04 602.042C1384.4 611.807 1383.76 621.845 1381.48 631.701C1372.08 671.854 1339.5 698.776 1300.34 698.776C1254.43 698.776 1217.1 661.451 1217.1 615.548C1217.1 572.657 1250.6 537.705 1296.69 532.412C1330 528.58 1351.09 520.549 1371.9 503.757C1406.12 476.106 1420.73 440.15 1420.73 383.388C1420.73 333.835 1456.78 294.594 1502.87 294.046C1523.77 293.59 1543.94 302.077 1559.46 317.317C1576.89 334.565 1586.84 358.657 1586.84 383.479C1586.84 440.242 1601.45 476.197 1635.67 503.849C1656.57 520.64 1677.66 528.762 1710.88 532.503C1756.97 537.796 1790.47 572.748 1790.47 615.64C1790.47 661.543 1753.14 698.867 1707.23 698.867L1707.32 698.776ZM1504.24 463.695C1543.03 463.695 1579.9 485.688 1603 522.556C1612.49 537.614 1619.33 554.132 1623.53 571.653C1625.91 581.6 1626.54 591.821 1627.18 601.677C1627.82 611.259 1628.46 621.115 1630.56 630.606C1639.51 668.661 1670.26 694.213 1707.32 694.213C1750.67 694.213 1786 658.896 1786 615.548C1786 575.03 1754.23 541.995 1710.42 536.975C1676.2 533.051 1654.47 524.747 1632.84 507.316C1597.89 479.118 1582.28 440.88 1582.28 383.388C1582.28 359.752 1572.79 336.846 1556.17 320.511C1541.57 306.092 1522.77 298.153 1502.87 298.609C1464.72 299.065 1425.2 330.914 1425.2 383.388C1425.2 440.88 1409.59 479.118 1374.64 507.316C1353 524.747 1331.28 533.051 1297.06 536.975C1253.24 541.995 1221.48 575.03 1221.48 615.548C1221.48 658.896 1256.8 694.213 1300.16 694.213C1337.12 694.213 1367.97 668.661 1376.92 630.606C1379.11 621.206 1379.75 611.259 1380.29 601.677C1380.93 591.821 1381.57 581.509 1383.95 571.653C1396.54 518.267 1441.72 463.969 1503.69 463.695H1504.24Z" fill="url(#paint3_linear_114_231)"/>
<path d="M1707.32 698.776C1668.16 698.776 1635.58 671.763 1626.18 631.701C1623.9 621.936 1623.26 611.807 1622.62 602.042C1621.98 592.369 1621.34 582.33 1619.15 572.748C1615.14 555.774 1608.38 539.713 1599.25 525.02C1576.98 489.43 1541.57 468.258 1504.33 468.258H1503.88C1444.28 468.532 1400.74 521.005 1388.51 572.748C1386.23 582.33 1385.59 592.369 1385.04 602.042C1384.4 611.807 1383.76 621.845 1381.48 631.701C1372.08 671.854 1339.5 698.776 1300.34 698.776C1254.43 698.776 1217.1 661.451 1217.1 615.548C1217.1 572.657 1250.6 537.705 1296.69 532.412C1330 528.58 1351.09 520.549 1371.9 503.757C1406.12 476.106 1420.73 440.15 1420.73 383.388C1420.73 333.835 1456.78 294.594 1502.87 294.046C1523.77 293.59 1543.94 302.077 1559.46 317.317C1576.89 334.565 1586.84 358.657 1586.84 383.479C1586.84 440.242 1601.45 476.197 1635.67 503.849C1656.57 520.64 1677.66 528.762 1710.88 532.503C1756.97 537.796 1790.47 572.748 1790.47 615.64C1790.47 661.543 1753.14 698.867 1707.23 698.867L1707.32 698.776ZM1504.24 463.695C1543.03 463.695 1579.9 485.688 1603 522.556C1612.49 537.614 1619.33 554.132 1623.53 571.653C1625.91 581.6 1626.54 591.821 1627.18 601.677C1627.82 611.259 1628.46 621.115 1630.56 630.606C1639.51 668.661 1670.26 694.213 1707.32 694.213C1750.67 694.213 1786 658.896 1786 615.548C1786 575.03 1754.23 541.995 1710.42 536.975C1676.2 533.051 1654.47 524.747 1632.84 507.316C1597.89 479.118 1582.28 440.88 1582.28 383.388C1582.28 359.752 1572.79 336.846 1556.17 320.511C1541.57 306.092 1522.77 298.153 1502.87 298.609C1464.72 299.065 1425.2 330.914 1425.2 383.388C1425.2 440.88 1409.59 479.118 1374.64 507.316C1353 524.747 1331.28 533.051 1297.06 536.975C1253.24 541.995 1221.48 575.03 1221.48 615.548C1221.48 658.896 1256.8 694.213 1300.16 694.213C1337.12 694.213 1367.97 668.661 1376.92 630.606C1379.11 621.206 1379.75 611.259 1380.29 601.677C1380.93 591.821 1381.57 581.509 1383.95 571.653C1396.54 518.267 1441.72 463.969 1503.69 463.695H1504.24Z" fill="url(#paint4_linear_114_231)"/>
<path d="M490.218 698.776C451.063 698.776 418.479 671.763 409.078 631.701C406.796 621.936 406.157 611.807 405.518 602.042C404.88 592.369 404.241 582.33 402.05 572.748C398.034 555.774 391.28 539.713 382.153 525.02C359.883 489.43 324.469 468.258 287.231 468.258H286.774C227.174 468.532 183.638 521.005 171.408 572.748C169.126 582.33 168.487 592.369 167.939 602.042C167.3 611.807 166.661 621.936 164.38 631.701C154.979 671.855 122.395 698.776 83.2394 698.776C37.33 698.776 0 661.451 0 615.548C0 572.657 33.4966 537.705 79.5886 532.412C112.903 528.58 133.986 520.549 154.796 503.757C189.023 476.106 203.626 440.15 203.626 383.388C203.626 333.835 239.678 294.594 285.77 294.046C306.672 293.773 326.843 302.077 342.359 317.317C359.792 334.565 369.74 358.657 369.74 383.479C369.74 440.242 384.343 476.197 418.57 503.849C439.471 520.64 460.555 528.762 493.778 532.504C539.87 537.797 573.366 572.748 573.366 615.64C573.366 661.543 536.036 698.867 490.127 698.867L490.218 698.776ZM287.14 463.695C325.93 463.695 362.803 485.688 385.895 522.556C395.387 537.614 402.233 554.132 406.431 571.653C408.804 581.6 409.443 591.821 410.082 601.677C410.721 611.259 411.36 621.115 413.459 630.606C422.404 668.661 453.162 694.213 490.218 694.213C533.572 694.213 568.894 658.896 568.894 615.548C568.894 575.03 537.132 541.995 493.321 536.975C459.095 533.051 437.372 524.747 415.741 507.317C380.784 479.118 365.177 440.88 365.177 383.388C365.177 359.752 355.684 336.846 339.164 320.511C324.561 306.092 305.759 298.062 285.862 298.518C247.71 298.974 208.19 330.823 208.19 383.297C208.19 440.789 192.582 479.026 157.626 507.225C135.994 524.655 114.272 532.96 80.0449 536.884C36.2347 541.903 4.47229 574.938 4.47229 615.457C4.47229 658.805 39.7943 694.121 83.1482 694.121C120.113 694.121 150.963 668.569 159.907 630.515C162.098 621.115 162.737 611.168 163.284 601.586C163.923 591.73 164.562 581.418 166.935 571.562C179.531 518.176 224.71 463.878 286.683 463.604H287.231L287.14 463.695Z" fill="url(#paint5_linear_114_231)"/>
<path d="M1707.32 195.761C1668.16 195.761 1635.58 168.84 1626.18 128.687C1623.9 118.922 1623.26 108.792 1622.62 99.0277C1621.98 89.3544 1621.34 79.2248 1619.15 69.7339C1615.14 52.7599 1608.38 36.6986 1599.25 22.006C1576.98 -13.5846 1541.57 -34.7565 1504.33 -34.7565H1503.88C1444.28 -34.4827 1400.74 17.9906 1388.51 69.6426C1386.23 79.2247 1385.59 89.2632 1385.04 98.9365C1384.4 108.701 1383.76 118.74 1381.48 128.595C1372.08 168.749 1339.5 195.67 1300.34 195.67C1254.43 195.67 1217.1 158.345 1217.1 112.443C1217.1 69.5514 1250.6 34.5995 1296.69 29.3066C1330 25.4737 1351.09 17.443 1371.9 0.65155C1406.12 -26.9996 1420.73 -62.9553 1420.73 -119.718C1420.73 -169.271 1456.78 -208.512 1502.87 -209.059C1523.96 -209.516 1543.94 -201.029 1559.37 -185.789C1576.8 -168.541 1586.75 -144.449 1586.75 -119.626C1586.75 -62.864 1601.35 -26.9083 1635.58 0.742889C1656.48 17.5344 1677.57 25.5651 1710.79 29.3979C1756.88 34.6909 1790.38 69.6427 1790.38 112.534C1790.38 158.437 1753.05 195.761 1707.14 195.761H1707.32ZM1504.33 -39.3194C1543.12 -39.3194 1580 -17.3262 1603.09 19.542C1612.58 34.5996 1619.43 51.1174 1623.62 68.6389C1626 78.586 1626.64 88.8069 1627.27 98.6628C1627.91 108.245 1628.55 118.101 1630.65 127.592C1639.6 165.646 1670.35 191.198 1707.41 191.198C1750.76 191.198 1786.09 155.882 1786.09 112.534C1786.09 72.0154 1754.32 38.98 1710.51 33.9608C1676.29 30.0367 1654.56 21.7322 1632.93 4.30196C1597.98 -23.8968 1582.37 -62.1339 1582.37 -119.626C1582.37 -143.262 1572.88 -166.168 1556.27 -182.503C1541.66 -196.922 1522.86 -204.77 1502.96 -204.405C1464.81 -203.949 1425.29 -172.1 1425.29 -119.626C1425.29 -62.1339 1409.68 -23.8968 1374.73 4.30196C1353.1 21.7322 1331.37 30.0367 1297.15 33.9608C1253.34 38.98 1221.57 72.0154 1221.57 112.534C1221.57 155.882 1256.9 191.198 1300.25 191.198C1337.21 191.198 1368.06 165.646 1377.01 127.592C1379.2 118.192 1379.84 108.245 1380.39 98.6628C1381.02 88.8069 1381.66 78.4948 1384.04 68.6389C1396.63 15.2529 1441.81 -39.0456 1503.78 -39.3194H1504.33Z" fill="url(#paint6_linear_114_231)"/>
<path d="M1098.81 447.269C1059.66 447.269 1027.07 420.256 1017.67 380.194C1015.39 370.429 1014.75 360.3 1014.11 350.535C1013.48 340.862 1012.84 330.823 1010.65 321.241C1006.63 304.267 999.876 288.206 990.749 273.513C968.387 237.832 932.7 216.568 895.37 216.751C835.77 217.025 792.234 269.498 780.003 321.15C777.721 330.732 777.082 340.771 776.535 350.444C775.896 360.208 775.257 370.338 772.975 380.103C763.574 420.256 730.99 447.177 691.835 447.177C645.926 447.177 608.596 409.853 608.596 363.95C608.596 321.059 642.092 286.107 688.184 280.814C721.498 276.981 742.582 268.95 763.392 252.159C797.619 224.508 812.222 188.552 812.222 131.79C812.222 82.2366 848.274 42.9955 894.366 42.448C915.541 42.1742 935.438 50.4787 950.954 65.7188C968.387 82.9666 978.336 107.059 978.336 131.881C978.336 188.643 992.939 224.599 1027.17 252.25C1048.07 269.042 1069.15 277.164 1102.37 280.905C1148.47 286.198 1181.96 321.15 1181.96 364.041C1181.96 409.944 1144.63 447.269 1098.72 447.269H1098.81ZM895.735 212.188C934.526 212.188 971.399 234.181 994.491 271.049C1003.98 286.107 1010.83 302.625 1015.03 320.146C1017.4 330.093 1018.04 340.314 1018.68 350.17C1019.32 359.752 1019.96 369.608 1022.05 379.099C1031 417.154 1061.76 442.706 1098.81 442.706C1142.17 442.706 1177.49 407.389 1177.49 364.041C1177.49 323.523 1145.73 290.487 1101.92 285.468C1067.69 281.544 1045.97 273.24 1024.34 255.809C989.38 227.611 973.772 189.373 973.772 131.881C973.772 108.245 964.28 85.3393 947.76 69.0041C933.156 54.5853 914.263 46.5546 894.457 47.0109C856.306 47.4672 816.786 79.3163 816.786 131.79C816.786 189.282 801.178 227.519 766.221 255.718C744.59 273.148 722.867 281.453 688.641 285.377C644.83 290.396 613.068 323.431 613.068 363.95C613.068 407.298 648.39 442.614 691.744 442.614C728.709 442.614 759.558 417.062 768.503 379.008C770.694 369.608 771.332 359.661 771.88 350.079C772.519 340.223 773.158 329.911 775.531 320.055C788.126 266.669 833.306 212.37 895.279 212.097H895.827L895.735 212.188Z" fill="url(#paint7_linear_114_231)"/>
<path d="M1102.37 709.727C1082.66 709.727 1063.68 702.152 1048.52 688.19C1030.54 671.581 1019.77 647.762 1018.95 622.94C1017.13 566.269 1001.34 530.77 966.197 504.213C944.84 488.061 923.482 480.669 890.077 478.022C843.802 474.281 809.211 440.424 807.842 397.533C806.381 351.63 842.525 313.119 888.343 311.659C889.256 311.659 890.168 311.659 891.081 311.659C929.05 311.659 961.177 337.302 971.674 376.178C974.229 385.852 975.233 395.982 976.146 405.746C977.059 415.42 978.063 425.458 980.618 434.949C985.182 451.831 992.392 467.619 1002.07 482.038C1025.61 516.99 1061.94 537.249 1099.27 535.698C1158.87 533.507 1200.67 479.665 1211.17 427.648C1213.09 418.066 1213.45 408.028 1213.73 398.263C1214 388.498 1214.36 378.369 1216.28 368.513C1224.4 328.085 1256.08 300.069 1295.23 298.792C1317.41 298.153 1338.58 306.092 1354.83 321.241C1371.08 336.481 1380.39 357.014 1381.12 379.281C1382.49 422.172 1350.18 458.219 1304.27 464.881C1271.13 469.718 1250.32 478.479 1229.97 495.909C1196.66 524.655 1183.15 561.067 1184.97 617.738C1186.53 667.292 1151.75 707.628 1105.75 709.727C1104.56 709.727 1103.47 709.727 1102.28 709.727H1102.37ZM891.172 316.222C890.351 316.222 889.438 316.222 888.617 316.222C867.624 316.861 848.092 325.713 833.763 341.044C819.433 356.375 811.858 376.361 812.496 397.35C813.774 437.869 846.632 469.9 890.533 473.46C924.851 476.289 946.848 483.863 969.027 500.563C1004.9 527.667 1021.69 565.357 1023.52 622.758C1024.25 646.302 1034.47 668.934 1051.54 684.722C1066.6 698.684 1085.58 705.711 1105.48 704.981C1143.63 703.247 1182.05 670.212 1180.32 617.738C1178.49 560.246 1192.82 521.552 1226.87 492.259C1247.95 474.19 1269.4 465.155 1303.44 460.136C1347.07 453.748 1377.74 419.709 1376.46 379.19C1375.82 358.201 1366.97 338.671 1351.64 324.344C1336.3 310.016 1316.31 302.351 1295.32 303.081C1258.36 304.267 1228.33 330.823 1220.66 369.06C1218.75 378.551 1218.47 388.498 1218.2 398.081C1217.92 408.028 1217.56 418.248 1215.55 428.196C1204.69 481.947 1161.24 537.614 1099.27 539.987C1060.3 541.356 1022.51 520.64 998.142 484.319C988.194 469.535 980.801 453.2 976.055 435.953C973.408 426.097 972.404 415.876 971.491 406.02C970.578 396.438 969.666 386.582 967.11 377.274C957.253 340.405 926.768 316.131 890.99 316.131L891.172 316.222Z" fill="url(#paint8_linear_114_231)"/>
<path d="M490.218 195.761C451.063 195.761 418.479 168.84 409.078 128.687C406.796 118.922 406.157 108.792 405.518 99.0279C404.88 89.3545 404.241 79.2249 402.05 69.7341C398.034 52.7601 391.28 36.6987 382.153 22.0062C359.883 -13.5845 324.469 -34.7563 287.231 -34.7563H286.774C227.174 -34.4826 183.638 17.9907 171.408 69.6427C169.126 79.2248 168.487 89.2633 167.939 98.9366C167.3 108.701 166.661 118.831 164.38 128.596C154.979 168.749 122.395 195.67 83.2394 195.67C37.33 195.67 0 158.346 0 112.443C0 69.5515 33.4966 34.5997 79.5886 29.3067C112.903 25.4739 133.986 17.4432 154.796 0.651672C189.023 -26.9995 203.626 -62.9552 203.626 -119.718C203.626 -169.271 239.678 -208.512 285.77 -209.059C306.763 -209.242 326.843 -201.029 342.359 -185.788C359.792 -168.541 369.74 -144.449 369.74 -119.626C369.74 -62.8639 384.343 -26.9082 418.57 0.743027C439.471 17.5345 460.555 25.5652 493.778 29.398C539.87 34.691 573.366 69.6429 573.366 112.534C573.366 158.437 536.036 195.761 490.127 195.761H490.218ZM287.231 -39.3193C326.021 -39.3193 362.895 -17.3261 385.986 19.5422C395.479 34.691 402.324 51.2087 406.522 68.639C408.895 78.5862 409.534 88.807 410.173 98.6629C410.812 108.245 411.451 118.101 413.55 127.592C422.495 165.646 453.253 191.199 490.309 191.199C533.663 191.199 568.985 155.882 568.985 112.534C568.985 72.0156 537.223 38.9801 493.413 33.961C459.186 30.0368 437.463 21.7324 415.832 4.30208C380.875 -23.8967 365.268 -62.1338 365.268 -119.626C365.268 -143.262 355.776 -166.168 339.164 -182.503C324.561 -196.922 305.759 -204.679 285.862 -204.405C247.71 -203.949 208.19 -172.1 208.19 -119.626C208.19 -62.1338 192.582 -23.8967 157.626 4.30208C135.994 21.7324 114.272 30.0368 80.0449 33.961C36.2347 38.9801 4.47229 72.0156 4.47229 112.534C4.47229 155.882 39.7943 191.199 83.1482 191.199C120.113 191.199 150.963 165.646 159.907 127.592C162.098 118.192 162.737 108.245 163.284 98.6629C163.923 88.807 164.562 78.4949 166.935 68.639C179.531 15.2531 224.71 -39.0455 286.683 -39.3193H287.231Z" fill="url(#paint9_linear_114_231)"/>
<path d="M493.868 458.311C474.154 458.311 455.169 450.736 440.018 436.774C422.038 420.165 411.268 396.347 410.446 371.524C408.621 314.853 392.831 279.354 357.691 252.798C336.243 236.645 314.976 229.253 281.571 226.607C235.297 222.865 200.705 189.008 199.336 146.117C197.875 100.214 234.019 61.7032 279.837 60.2431C318.81 59.148 352.398 84.8828 363.076 124.671C365.632 134.436 366.636 144.474 367.549 154.239C368.461 163.912 369.465 173.951 372.021 183.441C376.585 200.324 383.795 216.112 393.47 230.531C416.926 265.482 453.161 285.559 490.674 284.19C550.274 282 592.076 228.158 602.572 176.141C604.489 166.559 604.854 156.429 605.128 146.756C605.402 136.991 605.767 126.861 607.684 117.006C615.807 76.5783 647.478 48.562 686.633 47.2844C687.546 47.2844 688.459 47.2844 689.371 47.2844C734.003 47.2844 771.059 82.8751 772.52 127.865C773.889 170.757 741.579 206.804 695.669 213.465C662.538 218.302 641.728 227.063 621.374 244.493C588.06 273.239 574.552 309.651 576.377 366.323C577.929 415.876 543.155 456.212 497.154 458.311C495.967 458.311 494.872 458.311 493.686 458.311H493.868ZM282.666 64.806C281.845 64.806 280.932 64.806 280.111 64.806C236.757 66.1748 202.621 102.587 203.991 145.934C205.268 186.453 238.126 218.485 282.028 222.044C316.346 224.873 338.342 232.447 360.521 249.147C396.39 276.251 413.184 313.94 415.01 371.342C415.74 394.886 425.962 417.518 443.121 433.306C458.181 447.269 477.348 454.295 497.063 453.565C535.214 451.831 573.639 418.796 571.905 366.323C570.08 308.83 584.409 270.137 618.453 240.843C639.537 222.774 660.986 213.739 695.03 208.72C738.658 202.332 769.325 168.293 768.047 127.774C766.678 84.4265 730.261 50.296 686.907 51.6649C649.942 52.8513 619.914 79.4073 612.247 117.644C610.33 127.135 610.057 137.082 609.783 146.664C609.509 156.612 609.144 166.833 607.136 176.78C596.275 230.622 552.829 286.198 490.856 288.571C451.792 289.94 414.097 269.224 389.728 232.903C379.779 218.12 372.386 201.876 367.64 184.537C364.993 174.681 363.989 164.46 363.076 154.604C362.164 145.022 361.251 135.166 358.695 125.858C348.838 88.9894 318.353 64.7147 282.484 64.7147L282.666 64.806Z" fill="url(#paint10_linear_114_231)"/>
<path d="M1102.37 206.804C1082.66 206.804 1063.68 199.229 1048.62 185.267C1030.64 168.658 1019.87 144.839 1019.04 120.017C1017.22 63.3458 1001.43 27.8465 966.289 1.29042C944.932 -14.8622 923.574 -22.2541 890.169 -24.9006C843.894 -28.6422 809.302 -62.499 807.933 -105.39C806.473 -151.293 842.616 -189.804 888.435 -191.264C889.347 -191.264 890.26 -191.264 891.173 -191.264C929.142 -191.264 961.269 -165.621 971.765 -126.745C974.321 -117.071 975.325 -106.942 976.238 -97.1771C977.15 -87.5037 978.154 -77.4652 980.71 -67.9744C985.274 -51.0917 992.484 -35.3041 1002.16 -20.8853C1025.62 14.0665 1061.94 34.1433 1099.36 32.7744C1158.96 30.5842 1200.77 -23.258 1211.26 -75.2751C1213.18 -84.8572 1213.54 -94.9868 1213.82 -104.66C1214.09 -114.425 1214.46 -124.554 1216.37 -134.41C1224.5 -174.838 1256.17 -202.854 1295.32 -204.132C1341.05 -205.409 1379.75 -169.453 1381.21 -123.642C1382.58 -80.7506 1350.27 -44.7036 1304.36 -38.0418C1271.23 -33.2051 1250.42 -24.4444 1230.06 -7.01408C1196.75 21.7322 1183.24 58.1442 1185.07 114.815C1186.62 164.369 1151.84 204.705 1105.84 206.804C1104.66 206.804 1103.56 206.804 1102.37 206.804ZM891.173 -186.701C890.351 -186.701 889.439 -186.701 888.617 -186.701C845.263 -185.332 811.128 -148.92 812.497 -105.573C813.775 -65.0542 846.632 -33.0226 890.534 -29.4635C924.852 -26.6345 946.848 -19.0602 969.027 -2.35999C1004.9 24.7437 1021.69 62.4332 1023.52 119.835C1024.25 143.47 1034.47 166.011 1051.63 181.799C1066.69 195.761 1085.85 202.788 1105.57 202.058C1143.72 200.324 1182.15 167.289 1180.41 114.815C1178.59 57.3229 1192.92 18.6295 1226.96 -10.6644C1248.04 -28.7334 1269.49 -37.768 1303.54 -42.7872C1347.16 -49.1753 1377.83 -83.2145 1376.55 -123.733C1375.18 -167.081 1338.68 -201.211 1295.41 -199.842C1258.45 -198.656 1228.42 -172.1 1220.75 -133.863C1218.84 -124.372 1218.56 -114.425 1218.29 -104.843C1218.02 -94.8956 1217.65 -84.6747 1215.64 -74.7275C1204.78 -20.8853 1161.34 34.6909 1099.36 37.0636C1060.39 38.4324 1022.6 17.7168 998.234 -18.6039C988.285 -33.3877 980.893 -49.6315 976.146 -66.9706C973.5 -76.8264 972.496 -87.0475 971.583 -96.9033C970.67 -106.485 969.757 -116.341 967.202 -125.65C957.345 -162.518 926.86 -186.792 891.082 -186.792L891.173 -186.701Z" fill="url(#paint11_linear_114_231)"/>
<path d="M1707.32 1201.7C1668.16 1201.7 1635.58 1174.69 1626.18 1134.62C1623.9 1124.86 1623.26 1114.73 1622.62 1104.97C1621.98 1095.29 1621.34 1085.25 1619.15 1075.67C1615.14 1058.7 1608.38 1042.64 1599.25 1027.94C1576.98 992.353 1541.57 971.181 1504.33 971.181H1503.88C1444.28 971.455 1400.74 1023.93 1388.51 1075.58C1386.23 1085.16 1385.59 1095.2 1385.04 1104.87C1384.4 1114.64 1383.76 1124.68 1381.48 1134.53C1372.08 1174.69 1339.5 1201.61 1300.34 1201.61C1254.43 1201.61 1217.1 1164.28 1217.1 1118.38C1217.1 1075.49 1250.6 1040.54 1296.69 1035.24C1330 1031.41 1351.09 1023.38 1371.9 1006.59C1406.12 978.938 1420.73 942.982 1420.73 886.22C1420.73 836.667 1456.78 797.426 1502.87 796.878C1523.77 796.513 1543.94 804.909 1559.46 820.149C1576.89 837.397 1586.84 861.489 1586.84 886.311C1586.84 943.074 1601.45 979.029 1635.67 1006.68C1656.57 1023.47 1677.66 1031.59 1710.88 1035.34C1756.97 1040.63 1790.47 1075.58 1790.47 1118.47C1790.47 1164.37 1753.14 1201.7 1707.23 1201.7H1707.32ZM1504.24 966.618C1543.03 966.618 1579.9 988.611 1603 1025.48C1612.49 1040.54 1619.33 1057.05 1623.53 1074.58C1625.91 1084.52 1626.54 1094.74 1627.18 1104.6C1627.82 1114.18 1628.46 1124.04 1630.56 1133.53C1639.51 1171.58 1670.26 1197.14 1707.32 1197.14C1750.67 1197.14 1786 1161.82 1786 1118.47C1786 1077.95 1754.23 1044.92 1710.42 1039.9C1676.2 1035.97 1654.47 1027.67 1632.84 1010.24C1597.89 982.041 1582.28 943.804 1582.28 886.311C1582.28 862.675 1572.79 839.769 1556.17 823.434C1541.57 809.015 1522.77 800.985 1502.87 801.532C1464.72 801.989 1425.2 833.838 1425.2 886.311C1425.2 943.804 1409.59 982.041 1374.64 1010.24C1353 1027.67 1331.28 1035.97 1297.06 1039.9C1253.24 1044.92 1221.48 1077.95 1221.48 1118.47C1221.48 1161.82 1256.8 1197.14 1300.16 1197.14C1337.12 1197.14 1367.97 1171.58 1376.92 1133.53C1379.11 1124.13 1379.75 1114.18 1380.29 1104.6C1380.93 1094.74 1381.57 1084.43 1383.95 1074.58C1396.54 1021.19 1441.72 966.892 1503.69 966.618H1504.24Z" fill="url(#paint12_linear_114_231)"/>
<path d="M1098.81 1453.21C1059.66 1453.21 1027.07 1426.19 1017.67 1386.13C1015.39 1376.37 1014.75 1366.24 1014.11 1356.47C1013.48 1346.8 1012.84 1336.76 1010.65 1327.18C1006.63 1310.2 999.876 1294.14 990.749 1279.45C968.478 1243.86 933.065 1222.69 895.827 1222.69H895.37C835.77 1222.96 792.234 1275.44 780.003 1327.18C777.721 1336.76 777.082 1346.8 776.535 1356.47C775.896 1366.24 775.257 1376.37 772.975 1386.13C763.574 1426.28 730.99 1453.21 691.835 1453.21C645.926 1453.21 608.596 1415.88 608.596 1369.98C608.596 1327.09 642.092 1292.14 688.184 1286.84C721.498 1283.01 742.582 1274.98 763.392 1258.19C797.619 1230.54 812.222 1194.58 812.222 1137.82C812.222 1088.27 848.274 1049.02 894.366 1048.48C915.541 1048.11 935.438 1056.51 950.954 1071.75C968.387 1088.99 978.336 1113.09 978.336 1137.91C978.336 1194.67 992.939 1230.63 1027.17 1258.28C1048.07 1275.07 1069.15 1283.19 1102.37 1286.93C1148.47 1292.23 1181.96 1327.18 1181.96 1370.07C1181.96 1415.97 1144.63 1453.3 1098.72 1453.3L1098.81 1453.21ZM895.735 1218.13C934.526 1218.13 971.399 1240.12 994.491 1276.99C1003.98 1292.04 1010.83 1308.56 1015.03 1326.08C1017.4 1336.03 1018.04 1346.25 1018.68 1356.11C1019.32 1365.69 1019.96 1375.55 1022.05 1385.04C1031 1423.09 1061.76 1448.64 1098.81 1448.64C1142.17 1448.64 1177.49 1413.33 1177.49 1369.98C1177.49 1329.46 1145.73 1296.42 1101.92 1291.41C1067.69 1287.48 1045.97 1279.18 1024.34 1261.75C989.38 1233.55 973.772 1195.31 973.772 1137.82C973.772 1114.18 964.28 1091.28 947.76 1074.94C933.156 1060.52 914.263 1052.58 894.457 1052.95C856.306 1053.4 816.786 1085.25 816.786 1137.73C816.786 1195.22 801.178 1233.46 766.221 1261.66C744.59 1279.09 722.867 1287.39 688.641 1291.31C644.83 1296.33 613.068 1329.37 613.068 1369.89C613.068 1413.23 648.39 1448.55 691.744 1448.55C728.709 1448.55 759.558 1423 768.503 1384.94C770.694 1375.55 771.332 1365.6 771.88 1356.02C772.519 1346.16 773.158 1335.85 775.531 1325.99C788.126 1272.61 833.306 1218.31 895.279 1218.03H895.827L895.735 1218.13Z" fill="url(#paint13_linear_114_231)"/>
<path d="M490.218 1201.7C451.063 1201.7 418.479 1174.69 409.078 1134.62C406.796 1124.86 406.157 1114.73 405.518 1104.97C404.88 1095.29 404.241 1085.25 402.05 1075.67C398.034 1058.7 391.28 1042.64 382.153 1027.94C359.883 992.353 324.469 971.181 287.231 971.181H286.774C227.174 971.455 183.638 1023.93 171.408 1075.58C169.126 1085.16 168.487 1095.2 167.939 1104.87C167.3 1114.64 166.661 1124.77 164.38 1134.53C154.979 1174.69 122.395 1201.61 83.2394 1201.61C37.33 1201.61 0 1164.28 0 1118.38C0 1075.49 33.4966 1040.54 79.5886 1035.24C112.903 1031.41 133.986 1023.38 154.796 1006.59C189.023 978.938 203.626 942.982 203.626 886.22C203.626 836.667 239.678 797.426 285.77 796.878C306.672 796.513 326.843 804.909 342.359 820.149C359.792 837.397 369.74 861.489 369.74 886.311C369.74 943.074 384.343 979.029 418.57 1006.68C439.471 1023.47 460.555 1031.59 493.778 1035.34C539.87 1040.63 573.366 1075.58 573.366 1118.47C573.366 1164.37 536.036 1201.7 490.127 1201.7H490.218ZM287.14 966.618C325.93 966.618 362.803 988.611 385.895 1025.48C395.387 1040.63 402.233 1057.15 406.431 1074.58C408.804 1084.52 409.443 1094.74 410.082 1104.6C410.721 1114.18 411.36 1124.04 413.459 1133.53C422.404 1171.58 453.162 1197.14 490.218 1197.14C533.572 1197.14 568.894 1161.82 568.894 1118.47C568.894 1077.95 537.132 1044.92 493.321 1039.9C459.095 1035.97 437.372 1027.67 415.741 1010.24C380.784 982.041 365.177 943.804 365.177 886.311C365.177 862.675 355.684 839.769 339.164 823.434C324.561 809.015 305.759 801.076 285.862 801.441C247.71 801.897 208.19 833.746 208.19 886.22C208.19 943.712 192.582 981.949 157.626 1010.15C135.994 1027.58 114.272 1035.88 80.0449 1039.81C36.2347 1044.83 4.47229 1077.86 4.47229 1118.38C4.47229 1161.73 39.7943 1197.04 83.1482 1197.04C120.113 1197.04 150.963 1171.49 159.907 1133.44C162.098 1124.04 162.737 1114.09 163.284 1104.51C163.923 1094.65 164.562 1084.34 166.935 1074.49C179.531 1021.1 224.71 966.801 286.683 966.527H287.231L287.14 966.618Z" fill="url(#paint14_linear_114_231)"/>
<path d="M493.868 1464.16C474.154 1464.16 455.169 1456.58 440.018 1442.62C422.038 1426.01 411.268 1402.19 410.446 1377.37C408.621 1320.7 392.831 1285.2 357.691 1258.64C336.334 1242.49 314.976 1235.1 281.571 1232.45C235.297 1228.71 200.705 1194.85 199.336 1151.96C197.875 1106.06 234.019 1067.55 279.837 1066.09C318.719 1064.99 352.398 1090.73 363.076 1130.52C365.632 1140.19 366.636 1150.32 367.549 1160.09C368.461 1169.76 369.465 1179.8 372.021 1189.29C376.585 1206.17 383.795 1221.96 393.47 1236.38C416.926 1271.33 453.435 1291.5 490.674 1290.04C550.274 1287.85 592.076 1234 602.572 1181.99C604.489 1172.41 604.854 1162.37 605.128 1152.6C605.402 1142.84 605.767 1132.71 607.684 1122.85C615.807 1082.42 647.478 1054.41 686.633 1053.13C708.721 1052.49 729.987 1060.43 746.233 1075.58C762.48 1090.73 771.789 1111.35 772.52 1133.62C773.889 1176.51 741.579 1212.56 695.669 1219.22C662.538 1224.06 641.728 1232.82 621.374 1250.25C588.06 1278.99 574.552 1315.41 576.377 1372.08C577.929 1421.63 543.155 1461.97 497.154 1464.07C495.967 1464.07 494.872 1464.07 493.686 1464.07L493.868 1464.16ZM282.666 1070.65C281.845 1070.65 280.932 1070.65 280.111 1070.65C259.118 1071.29 239.586 1080.14 225.257 1095.47C210.927 1110.81 203.352 1130.79 203.991 1151.78C205.268 1192.3 238.126 1224.33 282.028 1227.89C316.346 1230.72 338.342 1238.29 360.521 1254.99C396.39 1282.1 413.184 1319.79 415.01 1377.19C415.74 1400.73 425.962 1423.36 443.03 1439.15C458.09 1453.11 477.074 1460.14 496.971 1459.41C535.123 1457.68 573.548 1424.64 571.814 1372.17C569.988 1314.68 584.318 1275.98 618.362 1246.69C639.446 1228.62 660.895 1219.59 694.939 1214.57C738.567 1208.18 769.234 1174.14 767.956 1133.62C766.587 1090.27 730.261 1056.05 686.816 1057.51C649.851 1058.7 619.823 1085.25 612.156 1123.49C610.239 1132.98 609.965 1142.93 609.691 1152.51C609.418 1162.46 609.053 1172.68 607.045 1182.63C596.183 1236.38 552.738 1292.04 490.765 1294.42C451.792 1295.79 414.006 1275.07 389.636 1238.75C379.688 1223.97 372.295 1207.72 367.549 1190.38C364.902 1180.53 363.898 1170.31 362.985 1160.45C362.072 1150.87 361.16 1141.01 358.604 1131.7C348.747 1094.84 318.262 1070.56 282.484 1070.56L282.666 1070.65Z" fill="url(#paint15_linear_114_231)"/>
<path d="M1707.32 698.776C1668.16 698.776 1635.58 671.763 1626.18 631.701C1623.9 621.936 1623.26 611.807 1622.62 602.042C1621.98 592.369 1621.34 582.33 1619.15 572.748C1615.14 555.774 1608.38 539.713 1599.25 525.02C1576.98 489.43 1541.57 468.258 1504.33 468.258H1503.88C1444.28 468.532 1400.74 521.005 1388.51 572.748C1386.23 582.33 1385.59 592.369 1385.04 602.042C1384.4 611.807 1383.76 621.845 1381.48 631.701C1372.08 671.854 1339.5 698.776 1300.34 698.776C1254.43 698.776 1217.1 661.451 1217.1 615.548C1217.1 572.657 1250.6 537.705 1296.69 532.412C1330 528.58 1351.09 520.549 1371.9 503.757C1406.12 476.106 1420.73 440.15 1420.73 383.388C1420.73 333.835 1456.78 294.594 1502.87 294.046C1523.77 293.59 1543.94 302.077 1559.46 317.317C1576.89 334.565 1586.84 358.657 1586.84 383.479C1586.84 440.242 1601.45 476.197 1635.67 503.849C1656.57 520.64 1677.66 528.762 1710.88 532.503C1756.97 537.796 1790.47 572.748 1790.47 615.64C1790.47 661.543 1753.14 698.867 1707.23 698.867L1707.32 698.776ZM1504.24 463.695C1543.03 463.695 1579.9 485.688 1603 522.556C1612.49 537.614 1619.33 554.132 1623.53 571.653C1625.91 581.6 1626.54 591.821 1627.18 601.677C1627.82 611.259 1628.46 621.115 1630.56 630.606C1639.51 668.661 1670.26 694.213 1707.32 694.213C1750.67 694.213 1786 658.896 1786 615.548C1786 575.03 1754.23 541.995 1710.42 536.975C1676.2 533.051 1654.47 524.747 1632.84 507.316C1597.89 479.118 1582.28 440.88 1582.28 383.388C1582.28 359.752 1572.79 336.846 1556.17 320.511C1541.57 306.092 1522.77 298.153 1502.87 298.609C1464.72 299.065 1425.2 330.914 1425.2 383.388C1425.2 440.88 1409.59 479.118 1374.64 507.316C1353 524.747 1331.28 533.051 1297.06 536.975C1253.24 541.995 1221.48 575.03 1221.48 615.548C1221.48 658.896 1256.8 694.213 1300.16 694.213C1337.12 694.213 1367.97 668.661 1376.92 630.606C1379.11 621.206 1379.75 611.259 1380.29 601.677C1380.93 591.821 1381.57 581.509 1383.95 571.653C1396.54 518.267 1441.72 463.969 1503.69 463.695H1504.24Z" fill="url(#paint16_linear_114_231)"/>
<path d="M1098.81 950.283C1059.66 950.283 1027.07 923.362 1017.67 883.208C1015.39 873.443 1014.75 863.314 1014.11 853.549C1013.48 843.876 1012.84 833.746 1010.65 824.255C1006.63 807.281 999.876 791.22 990.749 776.528C968.478 740.937 933.065 719.765 895.827 719.765H895.37C835.77 720.039 792.234 772.512 780.003 824.164C777.721 833.746 777.082 843.785 776.535 853.458C775.896 863.223 775.257 873.352 772.975 883.117C763.574 923.271 730.99 950.192 691.835 950.192C645.926 950.192 608.596 912.867 608.596 866.964C608.596 824.073 642.092 789.121 688.184 783.828C721.498 779.995 742.582 771.964 763.392 755.173C797.619 727.522 812.222 691.566 812.222 634.804C812.222 585.25 848.274 546.01 894.366 545.462C915.359 545.371 935.438 553.493 950.954 568.733C968.387 585.981 978.336 610.073 978.336 634.895C978.336 691.657 992.939 727.613 1027.17 755.264C1048.07 772.056 1069.15 780.087 1102.37 783.92C1148.47 789.212 1181.96 824.164 1181.96 867.055C1181.96 912.958 1144.63 950.283 1098.72 950.283H1098.81ZM895.827 715.202C934.617 715.202 971.49 737.195 994.582 774.063C1004.07 789.121 1010.92 805.639 1015.12 823.16C1017.49 833.107 1018.13 843.328 1018.77 853.184C1019.41 862.766 1020.05 872.622 1022.15 882.113C1031.09 920.168 1061.85 945.72 1098.91 945.72C1142.26 945.72 1177.58 910.403 1177.58 867.055C1177.58 826.537 1145.82 793.502 1102.01 788.482C1067.78 784.558 1046.06 776.254 1024.43 758.824C989.471 730.625 973.863 692.388 973.863 634.895C973.863 611.259 964.371 588.354 947.76 572.018C933.156 557.6 914.263 549.66 894.457 550.116C856.306 550.572 816.786 582.422 816.786 634.895C816.786 692.388 801.178 730.625 766.221 758.824C744.59 776.254 722.867 784.558 688.641 788.482C644.83 793.502 613.068 826.537 613.068 867.055C613.068 910.403 648.39 945.72 691.744 945.72C728.709 945.72 759.558 920.168 768.503 882.113C770.694 872.713 771.332 862.766 771.88 853.184C772.519 843.328 773.158 833.016 775.531 823.16C788.126 769.774 833.306 715.476 895.279 715.202H895.827Z" fill="url(#paint17_linear_114_231)"/>
<path d="M1102.37 1212.74C1082.66 1212.74 1063.68 1205.17 1048.52 1191.2C1030.54 1174.59 1019.77 1150.78 1018.95 1125.95C1017.13 1069.28 1001.34 1033.78 966.197 1007.23C944.749 991.075 923.482 983.683 890.077 981.037C843.802 977.295 809.211 943.439 807.842 900.547C806.381 854.644 842.525 816.134 888.343 814.673C889.256 814.673 890.168 814.673 891.081 814.673C929.05 814.673 961.177 840.317 971.674 879.193C974.229 888.958 975.233 898.996 976.146 908.76C977.059 918.434 978.063 928.472 980.618 937.963C985.182 954.846 992.392 970.633 1002.07 985.052C1025.52 1020 1061.85 1039.99 1099.27 1038.71C1158.87 1036.52 1200.67 982.679 1211.17 930.662C1213.09 921.08 1213.45 910.951 1213.73 901.277C1214 891.513 1214.36 881.383 1216.28 871.527C1224.4 831.1 1256.08 803.084 1295.23 801.806C1340.96 800.528 1379.66 836.484 1381.12 882.296C1382.49 925.187 1350.18 961.234 1304.27 967.895C1271.13 972.732 1250.32 981.493 1229.97 998.923C1196.66 1027.67 1183.15 1064.08 1184.97 1120.75C1186.53 1170.31 1151.75 1210.64 1105.75 1212.74C1104.56 1212.74 1103.47 1212.74 1102.28 1212.74H1102.37ZM891.172 819.236C890.351 819.236 889.438 819.236 888.617 819.236C845.263 820.605 811.127 857.017 812.496 900.365C813.774 940.883 846.632 972.915 890.533 976.474C924.851 979.303 946.848 986.877 969.027 1003.58C1004.9 1030.68 1021.69 1068.37 1023.52 1125.77C1024.25 1149.32 1034.47 1171.95 1051.63 1187.74C1066.69 1201.7 1085.85 1208.82 1105.57 1208C1143.72 1206.26 1182.15 1173.23 1180.41 1120.75C1178.59 1063.26 1192.92 1024.57 1226.96 995.273C1248.04 977.113 1269.49 968.169 1303.54 963.15C1347.16 956.762 1377.83 922.723 1376.55 882.204C1375.18 838.857 1338.68 804.635 1295.41 806.095C1258.45 807.281 1228.42 833.837 1220.75 872.075C1218.84 881.565 1218.56 891.513 1218.29 901.095C1218.01 911.042 1217.65 921.263 1215.64 931.21C1204.78 985.052 1161.34 1040.63 1099.36 1043C1060.39 1044.37 1022.6 1023.65 998.234 987.333C988.285 972.55 980.892 956.215 976.146 938.967C973.499 929.111 972.495 918.89 971.582 909.034C970.67 899.452 969.757 889.596 967.201 880.288C957.344 843.42 926.859 819.145 890.99 819.145L891.172 819.236Z" fill="url(#paint18_linear_114_231)"/>
<path d="M490.218 698.776C451.063 698.776 418.479 671.763 409.078 631.701C406.796 621.936 406.157 611.807 405.518 602.042C404.88 592.369 404.241 582.33 402.05 572.748C398.034 555.774 391.28 539.713 382.153 525.02C359.883 489.43 324.469 468.258 287.231 468.258H286.774C227.174 468.532 183.638 521.005 171.408 572.748C169.126 582.33 168.487 592.369 167.939 602.042C167.3 611.807 166.661 621.936 164.38 631.701C154.979 671.855 122.395 698.776 83.2394 698.776C37.33 698.776 0 661.451 0 615.548C0 572.657 33.4966 537.705 79.5886 532.412C112.903 528.58 133.986 520.549 154.796 503.757C189.023 476.106 203.626 440.15 203.626 383.388C203.626 333.835 239.678 294.594 285.77 294.046C306.672 293.773 326.843 302.077 342.359 317.317C359.792 334.565 369.74 358.657 369.74 383.479C369.74 440.242 384.343 476.197 418.57 503.849C439.471 520.64 460.555 528.762 493.778 532.504C539.87 537.797 573.366 572.748 573.366 615.64C573.366 661.543 536.036 698.867 490.127 698.867L490.218 698.776ZM287.14 463.695C325.93 463.695 362.803 485.688 385.895 522.556C395.387 537.614 402.233 554.132 406.431 571.653C408.804 581.6 409.443 591.821 410.082 601.677C410.721 611.259 411.36 621.115 413.459 630.606C422.404 668.661 453.162 694.213 490.218 694.213C533.572 694.213 568.894 658.896 568.894 615.548C568.894 575.03 537.132 541.995 493.321 536.975C459.095 533.051 437.372 524.747 415.741 507.317C380.784 479.118 365.177 440.88 365.177 383.388C365.177 359.752 355.684 336.846 339.164 320.511C324.561 306.092 305.759 298.062 285.862 298.518C247.71 298.974 208.19 330.823 208.19 383.297C208.19 440.789 192.582 479.026 157.626 507.225C135.994 524.655 114.272 532.96 80.0449 536.884C36.2347 541.903 4.47229 574.938 4.47229 615.457C4.47229 658.805 39.7943 694.121 83.1482 694.121C120.113 694.121 150.963 668.569 159.907 630.515C162.098 621.115 162.737 611.168 163.284 601.586C163.923 591.73 164.562 581.418 166.935 571.562C179.531 518.176 224.71 463.878 286.683 463.604H287.231L287.14 463.695Z" fill="url(#paint19_linear_114_231)"/>
<path d="M493.869 961.234C474.154 961.234 455.17 953.659 440.11 939.697C422.129 923.088 411.359 899.27 410.538 874.448C408.713 817.776 392.923 782.277 357.783 755.721C336.426 739.568 315.068 732.176 281.663 729.53C235.388 725.788 200.797 691.932 199.428 649.04C197.967 603.137 234.111 564.627 279.929 563.166C318.81 562.071 352.489 587.806 363.168 627.595C365.724 637.268 366.728 647.397 367.641 657.162C368.553 666.835 369.557 676.874 372.113 686.365C376.676 703.248 383.887 719.035 393.562 733.454C417.018 768.406 453.344 788.482 490.766 787.113C550.366 784.923 592.168 731.081 602.664 679.064C604.581 669.482 604.946 659.352 605.22 649.679C605.494 639.914 605.859 629.785 607.775 619.929C615.898 579.502 647.57 551.485 686.725 550.208C732.269 548.839 771.151 584.886 772.611 630.697C773.98 673.589 741.67 709.636 695.761 716.297C662.629 721.134 641.82 729.895 621.466 747.325C588.152 776.071 574.644 812.483 576.469 869.155C578.021 918.708 543.247 959.044 497.246 961.143C496.059 961.143 494.964 961.143 493.777 961.143L493.869 961.234ZM282.667 567.729C281.845 567.729 280.933 567.729 280.111 567.729C236.757 569.098 202.622 605.51 203.991 648.858C205.269 689.376 238.127 721.408 282.028 724.967C316.346 727.796 338.342 735.37 360.521 752.07C396.391 779.174 413.185 816.864 415.01 874.265C415.74 897.901 425.963 920.442 443.122 936.229C458.182 950.192 477.349 957.218 497.063 956.488C535.215 954.754 573.64 921.719 571.906 869.246C570.08 811.753 584.41 773.06 618.454 743.766C639.538 725.697 660.987 716.662 695.031 711.643C738.658 705.255 769.326 671.216 768.048 630.697C766.679 587.35 730.261 553.128 686.908 554.588C649.943 555.774 619.914 582.33 612.248 620.568C610.331 630.058 610.057 640.006 609.783 649.588C609.509 659.535 609.144 669.756 607.136 679.703C596.275 733.545 552.83 789.121 490.857 791.494C451.884 792.863 414.098 772.147 389.728 735.826C379.78 721.043 372.387 704.799 367.641 687.46C364.994 677.604 363.99 667.383 363.077 657.527C362.164 647.945 361.252 638.089 358.696 628.781C348.839 591.913 318.354 567.638 282.576 567.638L282.667 567.729Z" fill="url(#paint20_linear_114_231)"/>
<path d="M1098.81 447.269C1059.66 447.269 1027.07 420.256 1017.67 380.194C1015.39 370.429 1014.75 360.3 1014.11 350.535C1013.48 340.862 1012.84 330.823 1010.65 321.241C1006.63 304.267 999.876 288.206 990.749 273.513C968.387 237.832 932.7 216.568 895.37 216.751C835.77 217.025 792.234 269.498 780.003 321.15C777.721 330.732 777.082 340.771 776.535 350.444C775.896 360.208 775.257 370.338 772.975 380.103C763.574 420.256 730.99 447.177 691.835 447.177C645.926 447.177 608.596 409.853 608.596 363.95C608.596 321.059 642.092 286.107 688.184 280.814C721.498 276.981 742.582 268.95 763.392 252.159C797.619 224.508 812.222 188.552 812.222 131.79C812.222 82.2366 848.274 42.9955 894.366 42.448C915.541 42.1742 935.438 50.4787 950.954 65.7188C968.387 82.9666 978.336 107.059 978.336 131.881C978.336 188.643 992.939 224.599 1027.17 252.25C1048.07 269.042 1069.15 277.164 1102.37 280.905C1148.47 286.198 1181.96 321.15 1181.96 364.041C1181.96 409.944 1144.63 447.269 1098.72 447.269H1098.81ZM895.735 212.188C934.526 212.188 971.399 234.181 994.491 271.049C1003.98 286.107 1010.83 302.625 1015.03 320.146C1017.4 330.093 1018.04 340.314 1018.68 350.17C1019.32 359.752 1019.96 369.608 1022.05 379.099C1031 417.154 1061.76 442.706 1098.81 442.706C1142.17 442.706 1177.49 407.389 1177.49 364.041C1177.49 323.523 1145.73 290.487 1101.92 285.468C1067.69 281.544 1045.97 273.24 1024.34 255.809C989.38 227.611 973.772 189.373 973.772 131.881C973.772 108.245 964.28 85.3393 947.76 69.0041C933.156 54.5853 914.263 46.5546 894.457 47.0109C856.306 47.4672 816.786 79.3163 816.786 131.79C816.786 189.282 801.178 227.519 766.221 255.718C744.59 273.148 722.867 281.453 688.641 285.377C644.83 290.396 613.068 323.431 613.068 363.95C613.068 407.298 648.39 442.614 691.744 442.614C728.709 442.614 759.558 417.062 768.503 379.008C770.694 369.608 771.332 359.661 771.88 350.079C772.519 340.223 773.158 329.911 775.531 320.055C788.126 266.669 833.306 212.37 895.279 212.097H895.827L895.735 212.188Z" fill="url(#paint21_linear_114_231)"/>
<path d="M1102.37 709.727C1082.66 709.727 1063.68 702.152 1048.52 688.19C1030.54 671.581 1019.77 647.762 1018.95 622.94C1017.13 566.269 1001.34 530.77 966.197 504.213C944.84 488.061 923.482 480.669 890.077 478.022C843.802 474.281 809.211 440.424 807.842 397.533C806.381 351.63 842.525 313.119 888.343 311.659C889.256 311.659 890.168 311.659 891.081 311.659C929.05 311.659 961.177 337.302 971.674 376.178C974.229 385.852 975.233 395.982 976.146 405.746C977.059 415.42 978.063 425.458 980.618 434.949C985.182 451.831 992.392 467.619 1002.07 482.038C1025.61 516.99 1061.94 537.249 1099.27 535.698C1158.87 533.507 1200.67 479.665 1211.17 427.648C1213.09 418.066 1213.45 408.028 1213.73 398.263C1214 388.498 1214.36 378.369 1216.28 368.513C1224.4 328.085 1256.08 300.069 1295.23 298.792C1317.41 298.153 1338.58 306.092 1354.83 321.241C1371.08 336.481 1380.39 357.014 1381.12 379.281C1382.49 422.172 1350.18 458.219 1304.27 464.881C1271.13 469.718 1250.32 478.479 1229.97 495.909C1196.66 524.655 1183.15 561.067 1184.97 617.738C1186.53 667.292 1151.75 707.628 1105.75 709.727C1104.56 709.727 1103.47 709.727 1102.28 709.727H1102.37ZM891.172 316.222C890.351 316.222 889.438 316.222 888.617 316.222C867.624 316.861 848.092 325.713 833.763 341.044C819.433 356.375 811.858 376.361 812.496 397.35C813.774 437.869 846.632 469.9 890.533 473.46C924.851 476.289 946.848 483.863 969.027 500.563C1004.9 527.667 1021.69 565.357 1023.52 622.758C1024.25 646.302 1034.47 668.934 1051.54 684.722C1066.6 698.684 1085.58 705.711 1105.48 704.981C1143.63 703.247 1182.05 670.212 1180.32 617.738C1178.49 560.246 1192.82 521.552 1226.87 492.259C1247.95 474.19 1269.4 465.155 1303.44 460.136C1347.07 453.748 1377.74 419.709 1376.46 379.19C1375.82 358.201 1366.97 338.671 1351.64 324.344C1336.3 310.016 1316.31 302.351 1295.32 303.081C1258.36 304.267 1228.33 330.823 1220.66 369.06C1218.75 378.551 1218.47 388.498 1218.2 398.081C1217.92 408.028 1217.56 418.248 1215.55 428.196C1204.69 481.947 1161.24 537.614 1099.27 539.987C1060.3 541.356 1022.51 520.64 998.142 484.319C988.194 469.535 980.801 453.2 976.055 435.953C973.408 426.097 972.404 415.876 971.491 406.02C970.578 396.438 969.666 386.582 967.11 377.274C957.253 340.405 926.768 316.131 890.99 316.131L891.172 316.222Z" fill="url(#paint22_linear_114_231)"/>
<path d="M493.868 458.311C474.154 458.311 455.169 450.736 440.018 436.774C422.038 420.165 411.268 396.347 410.446 371.524C408.621 314.853 392.831 279.354 357.691 252.798C336.243 236.645 314.976 229.253 281.571 226.607C235.297 222.865 200.705 189.008 199.336 146.117C197.875 100.214 234.019 61.7032 279.837 60.2431C318.81 59.148 352.398 84.8828 363.076 124.671C365.632 134.436 366.636 144.474 367.549 154.239C368.461 163.912 369.465 173.951 372.021 183.441C376.585 200.324 383.795 216.112 393.47 230.531C416.926 265.482 453.161 285.559 490.674 284.19C550.274 282 592.076 228.158 602.572 176.141C604.489 166.559 604.854 156.429 605.128 146.756C605.402 136.991 605.767 126.861 607.684 117.006C615.807 76.5783 647.478 48.562 686.633 47.2844C687.546 47.2844 688.459 47.2844 689.371 47.2844C734.003 47.2844 771.059 82.8751 772.52 127.865C773.889 170.757 741.579 206.804 695.669 213.465C662.538 218.302 641.728 227.063 621.374 244.493C588.06 273.239 574.552 309.651 576.377 366.323C577.929 415.876 543.155 456.212 497.154 458.311C495.967 458.311 494.872 458.311 493.686 458.311H493.868ZM282.666 64.806C281.845 64.806 280.932 64.806 280.111 64.806C236.757 66.1748 202.621 102.587 203.991 145.934C205.268 186.453 238.126 218.485 282.028 222.044C316.346 224.873 338.342 232.447 360.521 249.147C396.39 276.251 413.184 313.94 415.01 371.342C415.74 394.886 425.962 417.518 443.121 433.306C458.181 447.269 477.348 454.295 497.063 453.565C535.214 451.831 573.639 418.796 571.905 366.323C570.08 308.83 584.409 270.137 618.453 240.843C639.537 222.774 660.986 213.739 695.03 208.72C738.658 202.332 769.325 168.293 768.047 127.774C766.678 84.4265 730.261 50.296 686.907 51.6649C649.942 52.8513 619.914 79.4073 612.247 117.644C610.33 127.135 610.057 137.082 609.783 146.664C609.509 156.612 609.144 166.833 607.136 176.78C596.275 230.622 552.829 286.198 490.856 288.571C451.792 289.94 414.097 269.224 389.728 232.903C379.779 218.12 372.386 201.876 367.64 184.537C364.993 174.681 363.989 164.46 363.076 154.604C362.164 145.022 361.251 135.166 358.695 125.858C348.838 88.9894 318.353 64.7147 282.484 64.7147L282.666 64.806Z" fill="url(#paint23_linear_114_231)"/>
</g>
<defs>
<linearGradient id="paint0_linear_114_231" x1="1217.01" y1="496.365" x2="1790.56" y2="496.365" gradientUnits="userSpaceOnUse">
<stop stop-color="#0DE5B2"/>
<stop offset="1" stop-color="#2B45ED"/>
</linearGradient>
<linearGradient id="paint1_linear_114_231" x1="1217.01" y1="-6.55779" x2="1790.56" y2="-6.55779" gradientUnits="userSpaceOnUse">
<stop stop-color="#0DE5B2"/>
<stop offset="1" stop-color="#2B45ED"/>
</linearGradient>
<linearGradient id="paint2_linear_114_231" x1="1217.01" y1="999.38" x2="1790.56" y2="999.38" gradientUnits="userSpaceOnUse">
<stop stop-color="#0DE5B2"/>
<stop offset="1" stop-color="#2B45ED"/>
</linearGradient>
<linearGradient id="paint3_linear_114_231" x1="1217.01" y1="496.365" x2="1790.56" y2="496.365" gradientUnits="userSpaceOnUse">
<stop stop-color="#0DE5B2"/>
<stop offset="1" stop-color="#2B45ED"/>
</linearGradient>
<linearGradient id="paint4_linear_114_231" x1="1217.01" y1="496.365" x2="1790.56" y2="496.365" gradientUnits="userSpaceOnUse">
<stop stop-color="#0DE5B2"/>
<stop offset="1" stop-color="#2B45ED"/>
</linearGradient>
<linearGradient id="paint5_linear_114_231" x1="-0.0912713" y1="496.365" x2="573.458" y2="496.365" gradientUnits="userSpaceOnUse">
<stop stop-color="#0DE5B2"/>
<stop offset="1" stop-color="#2B45ED"/>
</linearGradient>
<linearGradient id="paint6_linear_114_231" x1="1217.01" y1="-6.55779" x2="1790.56" y2="-6.55779" gradientUnits="userSpaceOnUse">
<stop stop-color="#0DE5B2"/>
<stop offset="1" stop-color="#2B45ED"/>
</linearGradient>
<linearGradient id="paint7_linear_114_231" x1="608.504" y1="244.95" x2="1182.05" y2="244.95" gradientUnits="userSpaceOnUse">
<stop stop-color="#0DE5B2"/>
<stop offset="1" stop-color="#2B45ED"/>
</linearGradient>
<linearGradient id="paint8_linear_114_231" x1="807.933" y1="504.122" x2="1381.3" y2="504.122" gradientUnits="userSpaceOnUse">
<stop stop-color="#0DE5B2"/>
<stop offset="1" stop-color="#2B45ED"/>
</linearGradient>
<linearGradient id="paint9_linear_114_231" x1="-0.0912713" y1="-6.55766" x2="573.458" y2="-6.55766" gradientUnits="userSpaceOnUse">
<stop stop-color="#0DE5B2"/>
<stop offset="1" stop-color="#2B45ED"/>
</linearGradient>
<linearGradient id="paint10_linear_114_231" x1="199.336" y1="252.615" x2="772.702" y2="252.615" gradientUnits="userSpaceOnUse">
<stop stop-color="#0DE5B2"/>
<stop offset="1" stop-color="#2B45ED"/>
</linearGradient>
<linearGradient id="paint11_linear_114_231" x1="807.933" y1="1.19915" x2="1381.3" y2="1.19915" gradientUnits="userSpaceOnUse">
<stop stop-color="#0DE5B2"/>
<stop offset="1" stop-color="#2B45ED"/>
</linearGradient>
<linearGradient id="paint12_linear_114_231" x1="1217.01" y1="999.38" x2="1790.56" y2="999.38" gradientUnits="userSpaceOnUse">
<stop stop-color="#0DE5B2"/>
<stop offset="1" stop-color="#2B45ED"/>
</linearGradient>
<linearGradient id="paint13_linear_114_231" x1="608.504" y1="1250.89" x2="1182.05" y2="1250.89" gradientUnits="userSpaceOnUse">
<stop stop-color="#0DE5B2"/>
<stop offset="1" stop-color="#2B45ED"/>
</linearGradient>
<linearGradient id="paint14_linear_114_231" x1="-0.0912713" y1="999.38" x2="573.458" y2="999.38" gradientUnits="userSpaceOnUse">
<stop stop-color="#0DE5B2"/>
<stop offset="1" stop-color="#2B45ED"/>
</linearGradient>
<linearGradient id="paint15_linear_114_231" x1="199.336" y1="1258.64" x2="772.702" y2="1258.64" gradientUnits="userSpaceOnUse">
<stop stop-color="#0DE5B2"/>
<stop offset="1" stop-color="#2B45ED"/>
</linearGradient>
<linearGradient id="paint16_linear_114_231" x1="1217.01" y1="496.365" x2="1790.56" y2="496.365" gradientUnits="userSpaceOnUse">
<stop stop-color="#0DE5B2"/>
<stop offset="1" stop-color="#2B45ED"/>
</linearGradient>
<linearGradient id="paint17_linear_114_231" x1="608.504" y1="747.872" x2="1182.05" y2="747.872" gradientUnits="userSpaceOnUse">
<stop stop-color="#0DE5B2"/>
<stop offset="1" stop-color="#2B45ED"/>
</linearGradient>
<linearGradient id="paint18_linear_114_231" x1="807.933" y1="1007.14" x2="1381.3" y2="1007.14" gradientUnits="userSpaceOnUse">
<stop stop-color="#0DE5B2"/>
<stop offset="1" stop-color="#2B45ED"/>
</linearGradient>
<linearGradient id="paint19_linear_114_231" x1="-0.0912713" y1="496.365" x2="573.458" y2="496.365" gradientUnits="userSpaceOnUse">
<stop stop-color="#0DE5B2"/>
<stop offset="1" stop-color="#2B45ED"/>
</linearGradient>
<linearGradient id="paint20_linear_114_231" x1="199.336" y1="755.63" x2="772.703" y2="755.63" gradientUnits="userSpaceOnUse">
<stop stop-color="#0DE5B2"/>
<stop offset="1" stop-color="#2B45ED"/>
</linearGradient>
<linearGradient id="paint21_linear_114_231" x1="608.504" y1="244.95" x2="1182.05" y2="244.95" gradientUnits="userSpaceOnUse">
<stop stop-color="#0DE5B2"/>
<stop offset="1" stop-color="#2B45ED"/>
</linearGradient>
<linearGradient id="paint22_linear_114_231" x1="807.933" y1="504.122" x2="1381.3" y2="504.122" gradientUnits="userSpaceOnUse">
<stop stop-color="#0DE5B2"/>
<stop offset="1" stop-color="#2B45ED"/>
</linearGradient>
<linearGradient id="paint23_linear_114_231" x1="199.336" y1="252.706" x2="772.702" y2="252.706" gradientUnits="userSpaceOnUse">
<stop stop-color="#0DE5B2"/>
<stop offset="1" stop-color="#2B45ED"/>
</linearGradient>
</defs>
</svg>
